# xmcd
#
# Track frame offsets:
#	150
#	20462
#	40240
#	63302
#	79400
#	98952
#	119690
#	132147
#	145905
#	163507
#
# Disc length: 2390 seconds
#
# Revision: 1
# Processed by: cddbd v1.5PL3 Copyright (c) Steve Scherf et al.
# Submitted via: EasyCDDAExtractor 5.0.7
#
DISCID=8809540a
DTITLE=Various Artist - Tons da Natureza
DYEAR=1999
DGENRE=MPB
TTITLE0=Sandra de Sá - Sal da Terra
TTITLE1=Timbalada - Que Beleza
TTITLE2=Elba Ramalho - Todo dia era dia de Índio
TTITLE3=Molejo - Peixe Vivo
TTITLE4=Kid Abelha - Mamãe Natureza
TTITLE5=Meninas Cantoras de Petrópólis - Borzeguim
TTITLE6=Engenheiros do Havaí - Planeta Água
TTITLE7=Luiz Melodia - Luz do Sol
TTITLE8=Belô Veloso - Sobradinho
TTITLE9=Farofa Carioca - Samba dos Animais
EXTD=Programa Crer pra ver\nNatura Cosméticos e Fundação Abrinq\nProdução: Ale
EXTD=xandre Agra\n
EXTT0=
EXTT1=
EXTT2=
EXTT3=
EXTT4=
EXTT5=
EXTT6=
EXTT7=
EXTT8=
EXTT9=
PLAYORDER=
